<svg width="505" height="123" viewBox="0 0 505 123" fill="none" xmlns="http://www.w3.org/2000/svg">
<path d="M43.4968 109.95L43.291 110.049C41.2331 110.968 37.7345 113.228 37.1429 118.268C37.0657 119.013 37.3229 119.783 37.8374 120.329C38.3777 120.925 39.1751 121.248 39.9983 121.248H51.1884C53.2464 121.272 55.0214 119.832 55.3558 117.871C55.6388 115.934 55.8188 113.153 55.9989 109.925C56.5391 100.565 57.3623 86.4116 62.2242 78.4909C64.4623 74.8161 69.7615 75.2382 71.9738 76.4797C72.9771 77.0508 74.006 77.6467 76.2955 79.7572L76.4241 79.6331C76.527 79.5338 76.6299 79.4593 76.7071 79.3848L76.8615 79.2606C77.3245 78.8137 77.7618 78.3916 78.1477 77.9943C78.2763 77.8454 78.4049 77.6964 78.5335 77.5722L78.6364 77.4481C76.4756 75.4369 75.2151 74.543 73.6716 73.674C69.8901 71.5386 62.6101 71.4393 59.3174 76.8522C54.0439 85.4681 53.1949 100.068 52.629 109.751C52.4489 112.905 52.2946 115.636 52.0116 117.399C51.9344 117.771 51.5743 118.02 51.1884 118.02H40.5642L40.7186 117.474C41.336 115.239 43.0852 113.476 45.3747 112.756L46.2751 112.508L46.5323 111.639C46.6352 111.316 48.9761 103.494 45.1689 93.2894C44.9374 92.5445 39.6896 75.5859 44.8602 65.0084L45.0403 64.636L45.4262 64.7849C46.3008 65.1326 47.2269 65.356 48.1787 65.4553C53.5294 66.0513 55.5616 63.0469 56.3076 61.2343C58.5199 55.7221 54.9957 45.6909 49.1819 40.9484L48.7446 40.6008L49.1819 40.278C52.166 38.0682 58.3141 37.1247 61.6068 37.7951C62.6615 38.0185 63.0731 38.3165 63.1503 38.391L63.2532 38.4903L63.2789 38.6145C64.4365 43.2824 68.6554 44.1515 68.8354 44.2011L76.5013 44.226C77.1959 44.2011 77.7618 44.7226 77.7875 45.393V46.2868C77.7875 49.614 70.3274 56.7401 65.517 57.0877C64.8739 57.1374 64.3079 57.4354 63.922 57.9319C63.5362 58.4037 63.3818 59.0245 63.4847 59.6204C63.5105 59.6949 65.4141 68.1866 69.9673 70.7441C70.7648 71.1662 71.768 70.9179 72.2568 70.173C72.7198 69.4033 72.4626 68.4101 71.6651 67.9631C69.7872 66.8955 68.0894 63.3448 67.2148 60.6136L67.0862 60.1915L67.5235 60.0673C70.0959 59.3721 73.1057 57.6092 75.781 55.2007C79.1767 52.1466 81.1832 48.8195 81.1832 46.3117V45.4178C81.1574 42.9597 79.0738 40.9981 76.527 40.9981L69.3242 40.9733C68.6811 40.7498 67.0862 40.0297 66.5717 37.8447C66.3144 36.7274 65.3626 35.2624 62.3271 34.6417C61.2724 34.4431 60.192 34.3438 59.1373 34.3438C54.121 34.3438 47.9214 36.1563 45.4776 39.3345C42.5193 43.1831 38.2748 54.1827 41.1559 60.6384C41.4389 61.2591 41.799 61.8302 42.2106 62.3765L42.3907 62.5999L42.262 62.8482C35.7795 74.7416 41.7733 93.5625 42.0305 94.3571C44.7316 101.607 44.0113 107.542 43.574 109.751L43.4968 109.95Z" fill="#A5C2D3" stroke="#A5C2D3" stroke-miterlimit="10"/>
<path d="M77.0414 64.1393C76.244 68.0872 76.9642 73.078 81.3889 75.3126L81.5432 75.3871L81.4403 75.8837C81.3117 76.3555 81.003 77.15 80.1541 78.2425C80.0512 78.3915 79.9225 78.5405 79.7682 78.6895C79.6138 78.8385 79.511 78.9874 79.3823 79.1364C79.0222 79.5337 78.5849 79.9558 78.0704 80.4276C77.916 80.5517 77.7874 80.6758 77.6331 80.8248C77.4787 80.9738 77.3244 81.0731 77.17 81.1973C74.932 83.0098 72.5654 84.6486 70.0444 86.0639C66.0313 88.4227 62.9444 92.0975 60.835 97.0138L60.0633 98.8263C60.0633 98.8263 56.076 108.137 59.3687 114.568C59.7031 115.239 60.1404 115.884 60.6549 116.455C60.8093 116.629 60.9636 116.803 61.1437 116.977C61.3238 117.151 61.4781 117.3 61.6582 117.449C61.8383 117.598 62.0698 117.796 62.3013 117.945C62.4042 118.02 62.5071 118.119 62.6357 118.193L62.6872 118.218C63.9477 119.286 65.3882 120.13 66.9317 120.726C67.6005 120.974 68.2951 121.173 69.0154 121.297C69.9157 121.471 70.8161 121.57 71.7422 121.57H83.2153C83.8841 121.57 85.1703 121.794 85.6591 121.322C86.0192 121.024 86.2765 120.602 86.3794 120.155C86.4566 119.559 86.4823 118.938 86.4051 118.342C86.3794 118.169 86.3537 117.97 86.3279 117.771C86.3022 117.573 86.2508 117.399 86.1993 117.2C86.0192 116.555 85.7363 115.959 85.3504 115.413C84.6044 114.37 83.524 113.55 82.3149 113.079L82.0577 112.979L82.212 112.756C84.5272 109.578 89.6207 101.582 87.3826 95.9461C86.2508 93.1155 83.4982 91.3278 79.228 90.6574C79.1765 90.6574 79.0994 90.6574 79.0479 90.6574C78.3791 90.6326 77.7874 91.0298 77.5816 91.6257C77.5044 91.874 77.5302 92.1472 77.6074 92.3955C77.6331 92.5196 77.6845 92.6437 77.736 92.7431C77.9675 93.0659 78.3019 93.3142 78.7135 93.3638C81.9805 93.8604 83.9356 95.0274 84.6816 96.9145C86.5595 101.607 80.8486 110.049 78.482 112.905L77.4787 114.121C77.3501 114.27 77.3244 114.444 77.4016 114.618C77.4787 114.792 77.6331 114.891 77.8131 114.916L79.4081 115.139C81.1059 115.388 82.3149 115.984 82.958 116.902C83.0095 116.977 83.0609 117.076 83.0867 117.175C83.1896 117.349 83.2924 117.548 83.3696 117.747C83.4211 117.945 83.4725 118.119 83.4982 118.318C83.4982 118.392 83.5497 118.467 83.5497 118.541L83.5754 118.789H71.7422C70.6617 118.789 69.607 118.616 68.5781 118.293C67.6777 118.02 66.8031 117.647 66.0056 117.151C65.6969 116.952 65.3882 116.753 65.0795 116.53C64.9252 116.406 64.7451 116.282 64.5908 116.133C64.4364 115.984 64.2821 115.835 64.1277 115.686C63.9734 115.537 63.8448 115.413 63.7161 115.264C63.4074 114.916 63.1245 114.544 62.8672 114.171C62.7386 113.997 62.61 113.823 62.5071 113.625C62.4042 113.426 62.2756 113.228 62.1984 113.029C61.2723 111.241 60.9122 109.205 61.1694 107.219C61.9926 100.937 64.4621 92.5693 71.5878 88.3979C74.2889 86.8584 76.8356 85.1204 79.228 83.1588C79.3823 83.0347 79.5367 82.9105 79.6653 82.7864C79.7939 82.6622 79.9483 82.5132 80.1026 82.3891C80.5657 81.967 81.003 81.5201 81.4146 81.0979C81.5432 80.949 81.6975 80.8 81.8262 80.6758C81.9548 80.5517 82.0834 80.3779 82.212 80.2289C83.2667 78.9378 83.9613 77.6963 84.27 76.5293C84.6816 74.8905 84.1928 73.9222 84.0127 73.649L83.9098 73.4752C83.8327 73.3263 83.704 73.2269 83.524 73.1773L83.3182 73.1028C79.7425 71.7123 79.5367 67.9879 79.7168 65.8774C79.7425 65.5794 79.974 65.3311 80.2827 65.2566C81.9548 64.909 84.3729 64.2386 86.4051 63.1461C87.8714 62.3515 89.5692 62.1281 91.1899 62.5253L91.7044 62.6992L92.1931 62.5005C93.2736 62.0536 94.3282 61.557 95.3058 60.9611C95.5116 60.8369 95.7688 60.9114 95.8974 61.1101C95.9489 61.2094 95.9746 61.3335 95.9489 61.4328C95.6402 62.4757 95.28 63.4689 94.817 64.4621L94.6112 64.909C94.534 65.058 94.5598 65.2566 94.6627 65.4056L94.9456 65.8029C96.3605 67.963 97.5695 70.2226 98.5471 72.6062C98.65 72.8793 98.7786 73.1525 98.8815 73.4256C99.1387 74.0463 99.3702 74.7167 99.6018 75.3871C99.6532 75.5609 99.7304 75.7596 99.7818 75.9334C99.8333 76.1072 99.9104 76.3058 99.9619 76.5045C100.142 77.1004 100.296 77.6963 100.451 78.317C100.502 78.5157 100.554 78.7143 100.579 78.9378C100.605 79.1612 100.682 79.3847 100.708 79.5833C101.274 82.4636 101.454 85.5673 100.862 88.6462C100.837 88.7703 100.811 88.8696 100.785 88.9938C100.682 89.4407 100.579 89.8877 100.476 90.3346C100.373 90.7815 100.296 91.2285 100.168 91.6506C99.8333 92.8921 99.4731 94.0839 99.0873 95.226C98.9587 95.5985 98.8558 95.9461 98.7271 96.2937C98.5985 96.6413 98.4956 97.0386 98.367 97.3862C98.0583 98.2801 97.7239 99.1491 97.4152 99.9933L97.1837 100.614C96.6434 102.104 96.129 103.494 95.7174 104.835C95.5887 105.257 95.4601 105.679 95.3572 106.077C95.2029 106.623 95.1 107.169 94.9971 107.715C94.6884 109.503 94.7398 111.142 95.3315 112.681C95.4858 113.079 95.6916 113.476 95.8974 113.848C96.0775 114.121 96.2576 114.395 96.4634 114.643L96.6692 114.891C96.875 115.139 97.1837 115.264 97.4924 115.214L97.7496 115.164H97.8268C98.8043 115.065 99.7818 115.288 100.579 115.785C100.656 115.835 100.734 115.884 100.785 115.934C100.862 116.008 100.939 116.083 101.017 116.157C101.171 116.306 101.3 116.455 101.402 116.604C101.788 117.151 102.071 117.747 102.226 118.392L102.277 118.665H94.5598C93.8909 118.665 93.2993 119.087 93.1192 119.733C92.9134 120.453 93.3507 121.198 94.0967 121.397C94.2253 121.421 94.354 121.446 94.4569 121.446H104.695C105.055 121.446 105.338 121.173 105.338 120.85C105.338 120.825 105.338 120.825 105.338 120.801L105.287 119.981C105.158 117.449 104.387 115.512 102.997 114.196C102.843 114.047 102.689 113.923 102.534 113.799C102.534 113.774 102.509 113.774 102.483 113.749C102.329 113.625 102.174 113.526 102.046 113.451C101.531 113.103 100.939 112.855 100.348 112.681C100.142 112.632 99.9619 112.582 99.7561 112.532C99.5503 112.483 99.3445 112.458 99.1387 112.433C98.8815 112.408 98.5985 112.383 98.367 112.383H98.2384L98.1869 112.259C96.875 109.851 97.8011 106.97 99.3445 102.749L99.6789 101.856L99.7561 101.657L100.039 100.912L100.168 100.564C100.554 99.4967 100.965 98.3546 101.377 97.1876C101.505 96.8151 101.634 96.4675 101.737 96.0951C101.84 95.7226 101.968 95.375 102.097 95.0026C102.714 93.0907 103.203 91.154 103.589 89.1924C104.284 85.5921 104.052 81.9918 103.358 78.7143C103.306 78.5157 103.28 78.3419 103.229 78.1432C103.177 77.9446 103.152 77.7708 103.1 77.5721C102.946 76.9762 102.792 76.3803 102.612 75.8092C102.56 75.6106 102.483 75.4368 102.431 75.2381C102.38 75.0395 102.329 74.8657 102.251 74.6919C101.891 73.5746 101.48 72.5317 101.068 71.5385C100.168 69.3783 99.113 67.3175 97.8782 65.3311C97.7239 65.0828 97.6982 64.7848 97.8011 64.5117C98.5728 62.575 99.7304 59.0492 98.7271 57.3608C98.4442 56.8642 97.9039 56.5662 97.3123 56.5662C96.875 56.5662 96.4377 56.7152 96.129 57.0132C94.7141 58.1305 93.1449 59.074 91.4728 59.7941L91.3957 59.8189L91.3185 59.7941C89.1319 59.3968 86.8424 59.7444 84.8874 60.7873C82.3921 62.1281 79.0479 62.724 78.4048 62.8233C77.7617 62.8978 77.17 63.444 77.0414 64.1393Z" fill="#F5BE85" stroke="#F5BE85" stroke-miterlimit="10"/>
<path d="M103.178 27.7886C100.58 28.8315 98.0071 29.7005 95.3832 30.1971C94.9974 29.2039 94.6629 28.2356 94.2256 27.3169C93.7883 26.3733 93.1709 25.5043 92.4506 24.7594C92.4506 25.2808 92.4506 25.7526 92.4249 26.2492C92.2963 27.7141 91.6789 28.9805 90.7786 30.1475C90.2126 30.8923 89.5952 31.5876 89.0036 32.3076C88.8749 32.4814 88.7463 32.6801 88.6434 32.8539C88.0003 32.407 87.4086 31.9352 86.7913 31.5876C85.8652 31.091 84.7076 31.2896 84.0387 32.0842C83.5757 32.5559 83.0612 32.978 82.521 33.3753C82.984 33.6981 83.55 33.9712 83.9873 34.3933C84.4761 34.8899 84.9134 35.461 85.2735 36.0569C85.9938 37.1991 86.6112 38.3909 87.3315 39.5082C88.1804 40.8242 89.2608 41.9416 90.7786 42.5623C91.3188 42.7609 91.859 42.9596 92.3992 43.0837C93.814 43.481 95.0745 44.2756 96.0263 45.3929C97.3383 46.8827 98.3673 48.5711 99.3191 50.2843C99.3962 50.5078 99.6278 50.632 99.8593 50.5575H99.885C101.789 50.1602 103.229 49.0925 104.284 47.5282C104.721 46.8578 105.056 46.1378 105.493 45.3681C105.107 45.1943 104.695 45.0453 104.284 44.8963C102.715 44.4742 101.12 44.1514 99.5506 43.6796C98.1357 43.3072 96.8238 42.5871 95.7691 41.5939C95.2289 41.0477 94.7916 40.4269 94.5086 39.7317C98.9846 36.8515 102.226 33.127 103.178 27.7886Z" fill="#B28061"/>
<path d="M130.163 108.162L129.262 107.616C137.34 96.418 141.713 83.1092 141.764 69.4529C142.047 32.6056 111.384 1.96575 73.2086 1.02222C33.5672 0.0538572 1.00007 30.8675 1.00007 68.9315C0.974348 86.2378 7.81705 102.899 20.1391 115.487C21.0394 116.307 22.4285 116.257 23.2775 115.413C24.0492 114.618 24.1006 113.401 23.3804 112.582C11.8301 100.763 5.39896 85.1701 5.42468 68.9315C5.42468 32.7546 36.86 3.53002 74.7264 5.34259C109.84 7.03101 137.597 35.461 137.314 69.4032C137.237 82.2154 133.147 94.7295 125.532 105.233L124.658 104.686C122.317 103.221 122.342 106.176 121.982 107.84C121.648 109.454 120.156 116.878 120.156 116.878C120.156 116.878 126.793 112.557 128.156 111.639C129.648 110.67 132.504 109.627 130.163 108.162Z" fill="#DCD0BC" stroke="#DCD0BC" stroke-width="2" stroke-miterlimit="10"/>
<path d="M183.071 48.2346H226.754C230.7 48.3427 234.002 45.3175 234.086 41.482C234.086 41.3739 234.086 41.2389 234.086 41.1308C234.114 39.2941 233.358 37.5384 231.987 36.2419C230.588 34.9184 228.713 34.1891 226.726 34.2161H183.071C179.545 34.2161 176.075 34.8914 172.829 36.2149C169.667 37.4844 166.813 39.3481 164.406 41.698C162.055 44.048 160.18 46.776 158.837 49.7472C157.466 52.8264 156.766 56.1487 156.766 59.498C156.766 66.2236 159.537 72.6792 164.434 77.46C166.841 79.7559 169.695 81.5927 172.801 82.8622C176.047 84.1857 179.517 84.8609 183.043 84.8609H207.809C214.329 84.8609 219.59 89.966 219.59 96.2324C219.674 99.3116 218.415 102.283 216.12 104.444C213.966 106.631 210.943 107.847 207.837 107.793H164.154C162.195 107.739 160.292 108.468 158.893 109.819C156.095 112.52 156.095 116.868 158.893 119.57C160.292 120.92 162.195 121.649 164.154 121.595H207.837C211.335 121.622 214.777 120.92 217.995 119.597C221.101 118.3 223.928 116.49 226.334 114.221C228.769 111.899 230.728 109.143 232.015 106.091C233.386 102.958 234.086 99.6087 234.086 96.2054C234.086 92.8561 233.386 89.5338 232.015 86.4546C229.301 80.3772 224.264 75.5153 217.967 72.8953C214.749 71.5717 211.307 70.8695 207.809 70.8965H183.043C179.937 70.9505 176.915 69.789 174.732 67.6552C170.143 63.1715 170.143 55.9596 174.732 51.4759C176.943 49.342 179.937 48.1806 183.071 48.2346Z" fill="#F5BE85"/>
<path d="M328.839 61.0645C324.194 50.5034 315.491 42.1031 304.549 37.6194C293.272 33.0816 280.595 33.0816 269.346 37.6194C258.46 42.1302 249.785 50.5304 245.168 61.0645C240.466 71.9498 240.466 84.1856 245.168 95.0438C247.462 100.23 250.792 104.903 254.962 108.873C259.132 112.817 264.001 115.977 269.374 118.192C280.651 122.73 293.328 122.73 304.577 118.192C309.978 116.004 314.903 112.844 319.073 108.927C323.243 104.984 326.545 100.284 328.839 95.0978C333.541 84.2126 333.541 71.9768 328.839 61.1186V61.0645ZM315.491 89.5877C313.952 93.1531 311.713 96.3673 308.887 99.0954C296.798 110.71 277.265 110.71 265.176 99.0954C262.35 96.3673 260.111 93.126 258.572 89.5877C255.354 82.1868 255.354 73.8405 258.572 66.4396C261.678 59.2548 267.583 53.5556 275.026 50.5574C282.694 47.4512 291.341 47.4512 299.009 50.5574C306.452 53.5556 312.357 59.2548 315.463 66.4396C317.058 70.1131 317.87 74.0566 317.842 78.0272L317.87 78.0001C317.926 81.9977 317.086 85.9412 315.491 89.5877Z" fill="#F5BE85"/>
<path d="M395.498 43.0756C382.961 31.0019 362.644 31.0019 350.136 43.1026C347.197 45.9387 344.875 49.288 343.28 52.9615C341.601 56.7429 340.761 60.8215 340.761 64.9271V116.139C340.817 119.002 343.224 121.325 346.19 121.379C347.617 121.379 349.016 120.785 349.968 119.759C350.947 118.786 351.507 117.463 351.507 116.112V87.8591C353.466 89.5338 355.592 91.0193 357.859 92.2888C366.338 96.6375 376.413 97.0697 385.255 93.4773C392.951 90.3171 399.107 84.4288 402.41 77.0009C405.74 69.3299 405.74 60.6865 402.41 52.9885C400.758 49.288 398.436 45.9387 395.498 43.0756ZM391.776 72.9763C387.186 83.4024 374.705 88.2913 363.876 83.8886C361.329 82.8622 359.034 81.3766 357.076 79.4858C355.145 77.6221 353.578 75.4072 352.514 72.9763C350.304 67.8443 350.304 62.091 352.514 56.959C354.641 51.9891 358.727 48.0455 363.876 45.9927C369.165 43.8589 375.125 43.8589 380.414 45.9927C385.563 48.0455 389.649 51.9891 391.776 56.959C392.895 59.471 393.455 62.1991 393.455 64.9542C393.455 67.7092 392.895 70.4373 391.776 72.9763Z" fill="#655042" stroke="#555555" stroke-miterlimit="10"/>
<path d="M441.307 91.7215L456.222 86.2654L460.531 84.6988C463.722 83.5103 466.968 82.754 467.276 78.8375C467.304 78.1622 467.192 77.487 466.996 76.8387C466.324 74.4618 464.309 72.3009 462.798 70.5182C460.699 68.0873 458.209 65.9805 455.41 64.3058C450.597 61.4427 445.056 59.9301 439.404 59.9841C438.116 59.9841 436.829 60.0652 435.542 60.2542C434.311 60.4433 433.079 60.6594 431.764 60.9295C424.992 62.4151 418.947 66.0075 414.498 71.1665C410.132 76.4335 407.726 82.9701 407.698 89.7227C407.418 96.4754 409.545 103.12 413.686 108.549C417.828 113.951 423.789 117.814 430.533 119.461C433.415 120.272 436.437 120.677 439.432 120.677C444.777 120.704 450.038 119.353 454.655 116.76C459.44 114.032 463.358 110.116 466.072 105.443C466.772 104.281 466.94 102.904 466.604 101.607C466.296 100.365 465.457 99.3115 464.281 98.6902C463.498 98.123 462.546 97.8529 461.595 97.8799C459.664 97.7989 457.873 98.7983 456.978 100.446C455.802 102.418 454.319 104.2 452.584 105.74C451.157 106.955 449.562 107.982 447.855 108.765C446.372 109.413 444.832 109.873 443.237 110.143C441.95 110.359 440.635 110.494 439.32 110.521C437.333 110.548 435.318 110.278 433.415 109.711C432.827 109.548 431.932 109.224 430.729 108.792C429.385 108.252 428.098 107.577 426.923 106.793C425.44 105.821 424.096 104.687 422.893 103.39C421.83 102.229 420.962 100.932 420.263 99.5546L426.811 97.1236L441.307 91.7215ZM418.108 89.4256C418.164 86.9677 418.723 84.5367 419.703 82.2678C420.626 80.188 421.914 78.2973 423.481 76.6226C424.936 75.083 426.643 73.8135 428.546 72.8141C430.309 71.8958 432.212 71.1935 434.171 70.7343C434.954 70.5723 435.766 70.4372 436.549 70.3832C437.389 70.3022 438.228 70.2481 439.068 70.2481C440.243 70.2751 441.418 70.3562 442.566 70.4912C443.965 70.6803 445.308 71.0314 446.595 71.5176C448.135 72.0848 449.59 72.8411 450.933 73.7595C451.996 74.4888 452.976 75.3261 453.843 76.2715L418.108 89.4256Z" fill="#655042" stroke="#655042" stroke-miterlimit="10"/>
<path d="M498.506 73.6245C499.849 73.6515 501.164 73.1653 502.116 72.2199C503.067 71.3286 503.599 70.1131 503.571 68.8436C503.627 66.1966 501.444 64.0087 498.702 63.9547C498.646 63.9547 498.59 63.9547 498.506 63.9547H484.822V38.7539C484.85 37.4844 484.318 36.2689 483.367 35.3775C481.408 33.5408 478.274 33.5408 476.315 35.3775C475.335 36.2419 474.776 37.4844 474.776 38.7809V92.802C474.776 96.0972 475.279 99.3925 476.231 102.553C477.126 105.659 478.497 108.63 480.316 111.358C482.135 114.329 484.682 116.814 487.732 118.624C490.95 120.569 494.672 121.622 498.45 121.622C501.192 121.676 503.459 119.569 503.515 116.922C503.515 116.868 503.515 116.814 503.515 116.733C503.543 115.464 503.011 114.248 502.06 113.357C501.108 112.439 499.821 111.925 498.45 111.952C496.211 112.06 494.001 111.385 492.266 110.035C490.726 108.819 489.439 107.334 488.46 105.659C487.284 103.768 486.389 101.715 485.801 99.5816C485.158 97.3667 484.822 95.0708 484.822 92.7749V73.5975H498.506V73.6245Z" fill="#655042" stroke="#655042" stroke-miterlimit="10"/>
</svg>
